<svg width="26" height="25" viewBox="0 0 26 25" fill="none" xmlns="http://www.w3.org/2000/svg">
<path d="M9.6433 5.5C9.6433 5.15625 9.96473 4.875 10.3576 4.875C10.7504 4.875 11.0719 5.15625 11.0719 5.5V10.8125C11.0719 11.2148 11.3665 11.5742 11.804 11.7031C12.2415 11.832 12.7237 11.6992 13.0004 11.3789C13.1344 11.2266 13.3397 11.1289 13.5719 11.1289C13.9647 11.1289 14.2862 11.4102 14.2862 11.7539C14.2862 12.1563 14.5808 12.5156 15.0183 12.6445C15.4558 12.7734 15.9379 12.6406 16.2147 12.3203C16.3487 12.168 16.554 12.0703 16.7862 12.0703C17.1344 12.0703 17.4245 12.2891 17.487 12.5781C17.5585 12.8984 17.8129 13.168 18.1612 13.2813C18.5094 13.3945 18.9067 13.3438 19.2013 13.1406C19.3219 13.0586 19.4737 13.0078 19.6433 13.0078C20.0362 13.0078 20.3576 13.2891 20.3576 13.6328V14.2578V18.3125C20.3576 19.8672 18.9201 21.125 17.1433 21.125H14.6433H11.9781H11.9379C10.2683 21.125 8.7058 20.3945 7.77723 19.1758L4.76383 15.2227C4.54508 14.9336 4.63437 14.5469 4.96026 14.3555C5.28615 14.1641 5.73258 14.2422 5.95133 14.5273L7.67901 16.7969C7.9424 17.1406 8.42901 17.293 8.8799 17.1758C9.3308 17.0586 9.63883 16.6914 9.63883 16.2773V15.5V5.5H9.6433ZM10.3576 3C8.78169 3 7.50044 4.12109 7.50044 5.5V13.2227C6.57187 12.2969 4.97812 12.0937 3.77276 12.793C2.46026 13.5625 2.10312 15.1133 2.98258 16.2617L5.99598 20.2187C7.32187 21.957 9.54955 23 11.9379 23H11.9781H14.6433H17.1433C20.1031 23 22.5004 20.9023 22.5004 18.3125V14.25V13.625C22.5004 12.2461 21.2192 11.125 19.6433 11.125C19.4424 11.125 19.2504 11.1445 19.0629 11.1758C18.5406 10.5742 17.7147 10.1875 16.7862 10.1875C16.4781 10.1875 16.1835 10.2305 15.9067 10.3086C15.3888 9.66797 14.5362 9.25 13.5719 9.25C13.4513 9.25 13.3308 9.25781 13.2147 9.26953V5.5C13.2147 4.12109 11.9335 3 10.3576 3ZM12.5004 14.875C12.5004 14.5312 12.179 14.25 11.7862 14.25C11.3933 14.25 11.0719 14.5312 11.0719 14.875V18.625C11.0719 18.9688 11.3933 19.25 11.7862 19.25C12.179 19.25 12.5004 18.9688 12.5004 18.625V14.875ZM14.6433 14.25C14.2504 14.25 13.929 14.5312 13.929 14.875V18.625C13.929 18.9688 14.2504 19.25 14.6433 19.25C15.0362 19.25 15.3576 18.9688 15.3576 18.625V14.875C15.3576 14.5312 15.0362 14.25 14.6433 14.25ZM18.2147 14.875C18.2147 14.5312 17.8933 14.25 17.5004 14.25C17.1076 14.25 16.7862 14.5312 16.7862 14.875V18.625C16.7862 18.9688 17.1076 19.25 17.5004 19.25C17.8933 19.25 18.2147 18.9688 18.2147 18.625V14.875Z" fill="#97AACD"/>
</svg>
